# xmcd
#
# Track frame offsets: 
#        150
#        19805
#        54305
#        81180
#        112830
#        145321
#        171871
#        200716
#        229400
#        257509
#        282949
#        310597
#
# Disc length: 4549 seconds
#
# Revision: 1
# Processed by: cddbd v1.5.2PL0 Copyright (c) Steve Scherf et al.
# Submitted via: ExactAudioCopy v0.99pb5
#
DISCID=a111c30c
DTITLE=Space - The Space Remixes Volume 1
DYEAR=2009
DGENRE=Synth-pop
TTITLE0=Magic Fly (2009 Remastered Version)
TTITLE1=Just Blue (Ichisan's Quatro Diversion)
TTITLE2=Fasten Seat Belt (Sare Havcilek Mix)
TTITLE3=Tango In Space (Bottin Remix)
TTITLE4=Air Force (King DJ Remix)
TTITLE5=Carry On Turn Me On (Bottin Remix)
TTITLE6=Prison (D-Pulse Remix)
TTITLE7=Mixed Up (Bottin and Loudery's Halo Halo Version)
TTITLE8=Tender Force (Rusty Egan Remix)
TTITLE9=Deliverance (Foto's Boulevard Of Dreams Mix)
TTITLE10=Running In The City (Ilya Santana Remix)
TTITLE11=Flying Nightmare (Acos Coolkas Version)
EXTD=
EXTT0=
EXTT1=
EXTT2=
EXTT3=
EXTT4=
EXTT5=
EXTT6=
EXTT7=
EXTT8=
EXTT9=
EXTT10=
EXTT11=
PLAYORDER=
